<?xml version="1.0" encoding="UTF-8"?>
<!DOCTYPE svg PUBLIC "-//W3C//DTD SVG 1.1//EN" "http://www.w3.org/Graphics/SVG/1.1/DTD/svg11.dtd">
<svg xmlns="http://www.w3.org/2000/svg" version="1.1" width="512px" height="512px" style="shape-rendering:geometricPrecision; text-rendering:geometricPrecision; image-rendering:optimizeQuality; fill-rule:evenodd; clip-rule:evenodd" xmlns:xlink="http://www.w3.org/1999/xlink">
<g><path style="opacity:0.889" fill="#fdfcfd" d="M 488.5,459.5 C 498.161,446.753 498.994,433.42 491,419.5C 487.825,416.657 484.991,413.49 482.5,410C 470.145,400.061 457.645,390.228 445,380.5C 444.581,379.328 443.915,378.328 443,377.5C 442.133,372.028 441.3,366.694 440.5,361.5C 443.493,351.519 446.493,341.519 449.5,331.5C 449.214,327.881 447.214,325.881 443.5,325.5C 441.201,326.635 439.034,327.968 437,329.5C 436.617,328.944 436.117,328.611 435.5,328.5C 431.694,302.275 425.527,276.608 417,251.5C 421.55,191.432 402.717,140.598 360.5,99C 321.081,66.2989 275.914,55.1322 225,65.5C 220.835,64.2767 216.668,64.2767 212.5,65.5C 210.244,64.0768 207.744,63.4101 205,63.5C 180.358,66.0749 158.858,75.5749 140.5,92C 130.096,100.887 121.43,111.053 114.5,122.5C 112.564,121.741 110.731,120.741 109,119.5C 96.6214,123.619 85.288,129.619 75,137.5C 74.6608,140.036 74.1608,142.536 73.5,145C 75.9781,153.004 77.6447,160.837 78.5,168.5C 66.3806,170.727 55.714,175.893 46.5,184C 22.8916,210.503 14.0583,241.336 20,276.5C 21.8793,281.976 24.046,287.31 26.5,292.5C 29.8604,296.527 33.5271,300.194 37.5,303.5C 36.3154,286.79 38.3154,270.457 43.5,254.5C 47.3584,247.131 51.5251,239.797 56,232.5C 61.9055,225.493 68.0722,218.826 74.5,212.5C 75.3382,212.842 75.6716,213.508 75.5,214.5C 71.4735,242.896 71.9735,271.229 77,299.5C 80.8603,316.095 86.8603,331.761 95,346.5C 95.8256,349.793 96.3256,353.126 96.5,356.5C 95.1208,359.386 93.1208,361.886 90.5,364C 70.5443,376.616 53.0443,392.116 38,410.5C 30.7385,421.57 27.2385,433.57 27.5,446.5C 28.5675,450.955 29.9009,455.288 31.5,459.5C 29.5,459.5 27.5,459.5 25.5,459.5C 19.2341,440.061 22.5674,422.227 35.5,406C 35.1667,405.667 34.8333,405.333 34.5,405C 49.6401,387.531 66.9735,372.531 86.5,360C 90.2765,357.045 91.4432,353.212 90,348.5C 79.36,329.913 72.6934,309.913 70,288.5C 69.5,288 69,287.5 68.5,287C 68.9402,284.838 69.2735,282.671 69.5,280.5C 67.987,272.095 67.3203,263.595 67.5,255C 67.5631,245.062 68.0631,235.228 69,225.5C 47.6885,248.717 39.3552,276.05 44,307.5C 42.6487,309.01 40.982,310.01 39,310.5C 36.2481,309.414 33.7481,307.914 31.5,306C 28.6936,302.258 25.527,298.758 22,295.5C 18.2204,287.831 15.0538,280.331 12.5,273C 8.62365,235.996 19.957,203.996 46.5,177C 54.1595,171.087 62.6595,166.92 72,164.5C 71.6131,159.512 70.7797,154.512 69.5,149.5C 69.1822,148.353 68.5156,147.519 67.5,147C 68.8333,144.333 68.8333,141.667 67.5,139C 69.0814,137.172 70.4147,135.172 71.5,133C 82.7103,123.895 95.377,117.728 109.5,114.5C 110.772,114.57 111.938,114.903 113,115.5C 114.3,112.705 115.8,110.039 117.5,107.5C 135.055,87.1257 156.388,71.959 181.5,62C 186.167,61 190.833,60 195.5,59C 205.23,58.3701 214.73,58.8701 224,60.5C 302.591,46.9728 361.591,74.3062 401,142.5C 417.982,176.113 424.982,211.779 422,249.5C 429.557,272.393 435.557,295.727 440,319.5C 451.755,319.926 456.421,325.926 454,337.5C 451.848,344.943 449.015,352.11 445.5,359C 446.84,364.042 447.673,369.209 448,374.5C 450.128,377.63 452.628,380.463 455.5,383C 470.864,392.368 484.364,403.868 496,417.5C 504.168,431.559 504.001,445.393 495.5,459C 493.19,459.497 490.857,459.663 488.5,459.5 Z"/></g>
<g><path style="opacity:1" fill="#bf4168" d="M 435.5,328.5 C 432.956,329.708 431.622,331.708 431.5,334.5C 426.817,308.756 421.317,283.09 415,257.5C 414.053,263.113 412.553,268.446 410.5,273.5C 411.929,261.784 411.595,250.118 409.5,238.5C 409.599,235.763 409.265,233.096 408.5,230.5C 409.679,225.22 410.346,219.887 410.5,214.5C 404.962,157.646 377.629,114.146 328.5,84C 313.145,76.0502 296.812,71.2169 279.5,69.5C 257.278,68.0538 235.112,68.7205 213,71.5C 211.93,71.472 211.097,71.1386 210.5,70.5C 212.213,69.3646 212.88,67.698 212.5,65.5C 216.668,64.2767 220.835,64.2767 225,65.5C 275.914,55.1322 321.081,66.2989 360.5,99C 402.717,140.598 421.55,191.432 417,251.5C 425.527,276.608 431.694,302.275 435.5,328.5 Z"/></g>
<g><path style="opacity:1" fill="#65132c" d="M 212.5,65.5 C 212.88,67.698 212.213,69.3646 210.5,70.5C 208.549,71.6414 206.549,71.6414 204.5,70.5C 185.507,71.9897 168.507,78.4897 153.5,90C 140.759,100.739 129.426,112.739 119.5,126C 120.056,126.383 120.389,126.883 120.5,127.5C 117.911,126.581 115.911,124.914 114.5,122.5C 121.43,111.053 130.096,100.887 140.5,92C 158.858,75.5749 180.358,66.0749 205,63.5C 207.744,63.4101 210.244,64.0768 212.5,65.5 Z"/></g>
<g><path style="opacity:1" fill="#f96c99" d="M 279.5,69.5 C 297.469,75.15 314.469,82.9834 330.5,93C 326.153,96.7368 325.319,101.237 328,106.5C 333.006,113.751 338.839,120.251 345.5,126C 353.755,128.957 358.588,126.124 360,117.5C 388.171,145.523 403.671,179.523 406.5,219.5C 405.833,219.5 405.5,219.167 405.5,218.5C 400.67,204.507 393.504,191.841 384,180.5C 383.5,187.826 383.334,195.159 383.5,202.5C 382.5,202.5 381.5,202.5 380.5,202.5C 378.236,203.219 375.903,203.552 373.5,203.5C 369.914,193.652 365.747,183.986 361,174.5C 359.062,171.61 356.895,168.944 354.5,166.5C 354.167,166.833 353.833,167.167 353.5,167.5C 354.167,171.5 354.833,175.5 355.5,179.5C 355.131,190.779 355.131,202.113 355.5,213.5C 355.167,214.5 354.5,215.167 353.5,215.5C 352.834,211.172 351.334,207.172 349,203.5C 334.657,180.142 319.324,157.475 303,135.5C 302.285,131.558 300.952,127.891 299,124.5C 302.071,152.748 304.571,181.081 306.5,209.5C 306.721,212.279 306.388,214.946 305.5,217.5C 295.074,193.541 280.741,172.041 262.5,153C 260.833,151.667 259.167,150.333 257.5,149C 256.668,148.312 256.002,148.479 255.5,149.5C 259.054,159.275 261.721,169.275 263.5,179.5C 264.433,187.498 264.433,195.498 263.5,203.5C 258.728,202.963 254.395,203.963 250.5,206.5C 246.634,201.799 243.468,196.465 241,190.5C 235.819,175.439 230.485,160.439 225,145.5C 224.311,144.643 223.478,143.977 222.5,143.5C 217.151,158.854 211.485,174.187 205.5,189.5C 205.018,167.538 208.018,145.871 214.5,124.5C 213.998,123.479 213.332,123.312 212.5,124C 206.768,128.291 202.601,133.791 200,140.5C 197.263,147.379 194.929,154.379 193,161.5C 192.536,160.906 192.369,160.239 192.5,159.5C 192.443,157.116 192.777,154.782 193.5,152.5C 192.831,149.972 191.998,149.972 191,152.5C 189.056,167.767 186.89,182.434 184.5,196.5C 175.915,173.641 172.748,149.974 175,125.5C 177.78,104.78 186.28,86.9464 200.5,72C 202.058,71.79 203.391,71.29 204.5,70.5C 206.549,71.6414 208.549,71.6414 210.5,70.5C 211.097,71.1386 211.93,71.472 213,71.5C 235.112,68.7205 257.278,68.0538 279.5,69.5 Z"/></g>
<g><path style="opacity:1" fill="#fedeaf" d="M 279.5,69.5 C 296.812,71.2169 313.145,76.0502 328.5,84C 377.629,114.146 404.962,157.646 410.5,214.5C 410.346,219.887 409.679,225.22 408.5,230.5C 407.833,226.833 407.167,223.167 406.5,219.5C 403.671,179.523 388.171,145.523 360,117.5C 358.588,126.124 353.755,128.957 345.5,126C 338.839,120.251 333.006,113.751 328,106.5C 325.319,101.237 326.153,96.7368 330.5,93C 314.469,82.9834 297.469,75.15 279.5,69.5 Z"/></g>
<g><path style="opacity:1" fill="#bd3d65" d="M 204.5,70.5 C 203.391,71.29 202.058,71.79 200.5,72C 186.28,86.9464 177.78,104.78 175,125.5C 172.748,149.974 175.915,173.641 184.5,196.5C 183.693,202.464 183.36,208.464 183.5,214.5C 175.243,221.023 171.243,229.69 171.5,240.5C 171.928,252.088 174.595,263.088 179.5,273.5C 181.069,305.895 183.402,338.228 186.5,370.5C 174.182,364.348 165.016,355.015 159,342.5C 149.357,318.927 142.357,294.593 138,269.5C 135.527,274.92 133.86,280.586 133,286.5C 131.862,298.808 131.362,311.141 131.5,323.5C 130.805,315.629 130.138,307.629 129.5,299.5C 129.833,290.667 129.833,281.833 129.5,273C 131.149,248.584 132.315,224.084 133,199.5C 133.448,191.791 134.281,184.124 135.5,176.5C 135.203,172.001 134.369,171.667 133,175.5C 132.532,186.078 131.365,196.578 129.5,207C 129.392,208.681 128.725,209.848 127.5,210.5C 126.515,201.727 124.515,193.227 121.5,185C 112.924,183.876 104.424,182.376 96,180.5C 88.4325,187.739 81.0992,195.405 74,203.5C 73.51,204.793 73.3433,206.127 73.5,207.5C 71.5994,209.796 69.2661,211.629 66.5,213C 61.6058,218.721 56.6058,224.221 51.5,229.5C 58.9982,211.149 71.1649,196.816 88,186.5C 90.1844,183.48 91.6844,180.147 92.5,176.5C 99.1667,176.5 105.833,176.5 112.5,176.5C 112.5,175.5 112.5,174.5 112.5,173.5C 119.54,173.239 126.206,171.405 132.5,168C 134.357,166.818 135.357,165.151 135.5,163C 134.179,152.931 132.846,143.098 131.5,133.5C 127.93,131.217 124.263,129.217 120.5,127.5C 120.389,126.883 120.056,126.383 119.5,126C 129.426,112.739 140.759,100.739 153.5,90C 168.507,78.4897 185.507,71.9897 204.5,70.5 Z"/></g>
<g><path style="opacity:1" fill="#fedeaf" d="M 313.5,103.5 C 320.999,103.501 324.665,107.334 324.5,115C 324.264,119.576 321.93,121.576 317.5,121C 310.114,116.416 308.781,110.583 313.5,103.5 Z"/></g>
<g><path style="opacity:1" fill="#fedeaf" d="M 268.5,109.5 C 274.331,109.834 277.331,113 277.5,119C 276.472,123.206 273.805,124.539 269.5,123C 266.484,121.471 265.151,118.971 265.5,115.5C 265.617,112.95 266.617,110.95 268.5,109.5 Z"/></g>
<g><path style="opacity:1" fill="#fedaae" d="M 254.5,115.5 C 260.555,114.942 261.888,117.109 258.5,122C 255.452,122.635 253.785,121.301 253.5,118C 253.743,117.098 254.077,116.265 254.5,115.5 Z"/></g>
<g><path style="opacity:1" fill="#1f4769" d="M 114.5,122.5 C 115.911,124.914 117.911,126.581 120.5,127.5C 124.263,129.217 127.93,131.217 131.5,133.5C 132.846,143.098 134.179,152.931 135.5,163C 135.357,165.151 134.357,166.818 132.5,168C 126.206,171.405 119.54,173.239 112.5,173.5C 112.5,174.5 112.5,175.5 112.5,176.5C 105.833,176.5 99.1667,176.5 92.5,176.5C 88.8183,176.665 85.1516,176.499 81.5,176C 80.9341,175.005 80.2674,174.172 79.5,173.5C 78.962,171.883 78.6287,170.216 78.5,168.5C 77.6447,160.837 75.9781,153.004 73.5,145C 74.1608,142.536 74.6608,140.036 75,137.5C 85.288,129.619 96.6214,123.619 109,119.5C 110.731,120.741 112.564,121.741 114.5,122.5 Z"/></g>
<g><path style="opacity:1" fill="#be3d66" d="M 205.5,189.5 C 203.091,196.394 201.091,203.394 199.5,210.5C 199.167,210.5 198.833,210.5 198.5,210.5C 195.167,210.833 191.833,211.167 188.5,211.5C 188.183,193.978 189.516,176.645 192.5,159.5C 192.369,160.239 192.536,160.906 193,161.5C 194.929,154.379 197.263,147.379 200,140.5C 202.601,133.791 206.768,128.291 212.5,124C 213.332,123.312 213.998,123.479 214.5,124.5C 208.018,145.871 205.018,167.538 205.5,189.5 Z"/></g>
<g><path style="opacity:1" fill="#47add5" d="M 107.5,124.5 C 112.224,126.201 112.724,128.868 109,132.5C 107.625,130.063 107.125,127.397 107.5,124.5 Z"/></g>
<g><path style="opacity:1" fill="#67142c" d="M 353.5,215.5 C 352.732,216.263 352.232,217.263 352,218.5C 349.989,216.137 347.489,214.304 344.5,213C 343.748,212.329 343.414,211.496 343.5,210.5C 348.49,215.164 349.49,214.497 346.5,208.5C 332.409,187.903 318.909,166.903 306,145.5C 307.114,156.137 308.28,166.804 309.5,177.5C 310.284,186.819 310.95,196.152 311.5,205.5C 309.833,206.833 308.167,208.167 306.5,209.5C 304.571,181.081 302.071,152.748 299,124.5C 300.952,127.891 302.285,131.558 303,135.5C 319.324,157.475 334.657,180.142 349,203.5C 351.334,207.172 352.834,211.172 353.5,215.5 Z"/></g>
<g><path style="opacity:1" fill="#48b1d8" d="M 104.5,137.5 C 99.6566,137.726 94.6566,138.226 89.5,139C 83.8146,144.803 82.9813,151.303 87,158.5C 90.5354,167.014 96.7021,169.681 105.5,166.5C 105.703,168.044 106.37,169.378 107.5,170.5C 100.499,171.501 93.4988,171.335 86.5,170C 85.9747,169.308 85.3081,168.808 84.5,168.5C 82.3507,160.439 80.684,152.272 79.5,144C 79.3536,141.966 80.0203,140.299 81.5,139C 89.2361,134.439 97.0695,130.272 105,126.5C 104.663,130.079 104.496,133.746 104.5,137.5 Z"/></g>
<g><path style="opacity:1" fill="#4ab2d9" d="M 109.5,164.5 C 119.214,162.445 123.547,156.445 122.5,146.5C 126.235,140.52 124.568,137.52 117.5,137.5C 116.337,135.018 114.337,133.684 111.5,133.5C 112.234,132.292 112.567,130.959 112.5,129.5C 117.761,131.217 122.594,133.884 127,137.5C 127.646,144.689 128.479,151.855 129.5,159C 129.498,161.586 128.498,163.586 126.5,165C 121.311,166.256 116.811,168.756 113,172.5C 111.989,171.663 110.822,171.33 109.5,171.5C 109.5,169.167 109.5,166.833 109.5,164.5 Z"/></g>
<g><path style="opacity:1" fill="#33648b" d="M 111.5,133.5 C 114.337,133.684 116.337,135.018 117.5,137.5C 115.796,142.428 117.462,145.428 122.5,146.5C 123.547,156.445 119.214,162.445 109.5,164.5C 108.486,155.523 108.319,146.523 109,137.5C 109.608,135.934 110.442,134.6 111.5,133.5 Z"/></g>
<g><path style="opacity:1" fill="#f4f5f8" d="M 117.5,137.5 C 124.568,137.52 126.235,140.52 122.5,146.5C 117.462,145.428 115.796,142.428 117.5,137.5 Z"/></g>
<g><path style="opacity:1" fill="#32638b" d="M 104.5,137.5 C 104.194,147.25 104.527,156.916 105.5,166.5C 96.7021,169.681 90.5354,167.014 87,158.5C 82.9813,151.303 83.8146,144.803 89.5,139C 94.6566,138.226 99.6566,137.726 104.5,137.5 Z"/></g>
<g><path style="opacity:1" fill="#65112b" d="M 250.5,206.5 C 249.081,207.451 247.415,207.784 245.5,207.5C 234.539,191.551 227.373,173.884 224,154.5C 217.848,170.771 211.848,187.105 206,203.5C 205.047,206.432 204.547,209.432 204.5,212.5C 202.95,211.559 201.284,210.893 199.5,210.5C 201.091,203.394 203.091,196.394 205.5,189.5C 211.485,174.187 217.151,158.854 222.5,143.5C 223.478,143.977 224.311,144.643 225,145.5C 230.485,160.439 235.819,175.439 241,190.5C 243.468,196.465 246.634,201.799 250.5,206.5 Z"/></g>
<g><path style="opacity:1" fill="#e5e9ee" d="M 112.5,144.5 C 116.485,144.629 117.818,146.463 116.5,150C 115.207,150.49 113.873,150.657 112.5,150.5C 112.5,148.5 112.5,146.5 112.5,144.5 Z"/></g>
<g><path style="opacity:1" fill="#e2887c" d="M 343.5,210.5 C 338.858,207.728 333.858,205.728 328.5,204.5C 322.523,195.2 316.19,186.2 309.5,177.5C 308.28,166.804 307.114,156.137 306,145.5C 318.909,166.903 332.409,187.903 346.5,208.5C 349.49,214.497 348.49,215.164 343.5,210.5 Z"/></g>
<g><path style="opacity:1" fill="#be3d66" d="M 305.5,217.5 C 301.802,224.78 300.802,232.447 302.5,240.5C 300.901,240.768 299.568,240.434 298.5,239.5C 296.106,232.286 292.772,225.619 288.5,219.5C 288.34,217.847 287.674,216.514 286.5,215.5C 282.24,206.321 277.407,197.321 272,188.5C 269.616,184.953 266.783,181.953 263.5,179.5C 261.721,169.275 259.054,159.275 255.5,149.5C 256.002,148.479 256.668,148.312 257.5,149C 259.167,150.333 260.833,151.667 262.5,153C 280.741,172.041 295.074,193.541 305.5,217.5 Z"/></g>
<g><path style="opacity:1" fill="#e2887c" d="M 245.5,207.5 C 243.393,209.727 241.06,211.727 238.5,213.5C 233.592,205.356 228.925,197.022 224.5,188.5C 225.161,200.19 223.495,211.523 219.5,222.5C 214.63,218.904 209.63,215.57 204.5,212.5C 204.547,209.432 205.047,206.432 206,203.5C 211.848,187.105 217.848,170.771 224,154.5C 227.373,173.884 234.539,191.551 245.5,207.5 Z"/></g>
<g><path style="opacity:1" fill="#65122c" d="M 192.5,159.5 C 189.516,176.645 188.183,193.978 188.5,211.5C 191.833,211.167 195.167,210.833 198.5,210.5C 193.634,211.932 188.634,213.266 183.5,214.5C 183.36,208.464 183.693,202.464 184.5,196.5C 186.89,182.434 189.056,167.767 191,152.5C 191.998,149.972 192.831,149.972 193.5,152.5C 192.777,154.782 192.443,157.116 192.5,159.5 Z"/></g>
<g><path style="opacity:1" fill="#64112a" d="M 373.5,203.5 C 371.972,204.309 370.306,204.976 368.5,205.5C 365.464,196.388 361.964,187.388 358,178.5C 359.105,188.764 359.939,199.098 360.5,209.5C 358.821,210.916 357.154,212.25 355.5,213.5C 355.131,202.113 355.131,190.779 355.5,179.5C 354.833,175.5 354.167,171.5 353.5,167.5C 353.833,167.167 354.167,166.833 354.5,166.5C 356.895,168.944 359.062,171.61 361,174.5C 365.747,183.986 369.914,193.652 373.5,203.5 Z"/></g>
<g><path style="opacity:1" fill="#bf4068" d="M 78.5,168.5 C 78.6287,170.216 78.962,171.883 79.5,173.5C 63.4675,176.931 50.6341,185.265 41,198.5C 33.3466,210.109 28.0132,222.776 25,236.5C 21.0497,257.905 24.0497,278.239 34,297.5C 34.6543,298.696 35.1543,298.696 35.5,297.5C 33.3901,291.509 32.3901,285.509 32.5,279.5C 33.5594,266.321 37.5594,254.321 44.5,243.5C 44.2756,247.179 43.9422,250.846 43.5,254.5C 38.3154,270.457 36.3154,286.79 37.5,303.5C 33.5271,300.194 29.8604,296.527 26.5,292.5C 24.046,287.31 21.8793,281.976 20,276.5C 14.0583,241.336 22.8916,210.503 46.5,184C 55.714,175.893 66.3806,170.727 78.5,168.5 Z"/></g>
<g><path style="opacity:1" fill="#f96b99" d="M 79.5,173.5 C 80.2674,174.172 80.9341,175.005 81.5,176C 85.1516,176.499 88.8183,176.665 92.5,176.5C 91.6844,180.147 90.1844,183.48 88,186.5C 71.1649,196.816 58.9982,211.149 51.5,229.5C 48.632,233.903 46.2986,238.569 44.5,243.5C 37.5594,254.321 33.5594,266.321 32.5,279.5C 32.3901,285.509 33.3901,291.509 35.5,297.5C 35.1543,298.696 34.6543,298.696 34,297.5C 24.0497,278.239 21.0497,257.905 25,236.5C 28.0132,222.776 33.3466,210.109 41,198.5C 50.6341,185.265 63.4675,176.931 79.5,173.5 Z"/></g>
<g><path style="opacity:1" fill="#f6dfcc" d="M 309.5,177.5 C 316.19,186.2 322.523,195.2 328.5,204.5C 322.432,203.652 316.932,204.985 312,208.5C 311.517,207.552 311.351,206.552 311.5,205.5C 310.95,196.152 310.284,186.819 309.5,177.5 Z"/></g>
<g><path style="opacity:1" fill="#4f4a1b" d="M 127.5,210.5 C 127.218,214.574 126.552,218.574 125.5,222.5C 121.484,225.835 116.817,227.502 111.5,227.5C 111.714,229.144 111.38,230.644 110.5,232C 101.791,233.172 93.1248,234.172 84.5,235C 82.8989,230.714 81.2322,226.547 79.5,222.5C 79.2064,219.246 77.873,216.579 75.5,214.5C 75.6716,213.508 75.3382,212.842 74.5,212.5C 74.7845,210.585 74.4511,208.919 73.5,207.5C 73.3433,206.127 73.51,204.793 74,203.5C 81.0992,195.405 88.4325,187.739 96,180.5C 104.424,182.376 112.924,183.876 121.5,185C 124.515,193.227 126.515,201.727 127.5,210.5 Z"/></g>
<g><path style="opacity:1" fill="#63112a" d="M 263.5,179.5 C 266.783,181.953 269.616,184.953 272,188.5C 277.407,197.321 282.24,206.321 286.5,215.5C 284.364,213.188 282.364,210.688 280.5,208C 279.234,207.691 278.067,207.191 277,206.5C 275.893,207.712 275.393,207.379 275.5,205.5C 272.927,200.409 270.094,195.409 267,190.5C 266.533,194.975 267.199,199.309 269,203.5C 270.622,204.099 272.122,204.766 273.5,205.5C 270.813,205.664 268.146,205.497 265.5,205C 264.584,204.722 263.918,204.222 263.5,203.5C 264.433,195.498 264.433,187.498 263.5,179.5 Z"/></g>
<g><path style="opacity:1" fill="#dc8378" d="M 368.5,205.5 C 365.605,206.399 362.938,207.733 360.5,209.5C 359.939,199.098 359.105,188.764 358,178.5C 361.964,187.388 365.464,196.388 368.5,205.5 Z"/></g>
<g><path style="opacity:1" fill="#64112b" d="M 405.5,218.5 C 404.903,218.735 404.57,219.235 404.5,220C 405.803,226.388 407.47,232.555 409.5,238.5C 411.595,250.118 411.929,261.784 410.5,273.5C 410.167,273.5 409.833,273.5 409.5,273.5C 408.079,256.724 405.579,240.057 402,223.5C 401.243,221.685 400.41,220.019 399.5,218.5C 398.655,217.329 397.989,215.995 397.5,214.5C 398.043,214.44 398.376,214.107 398.5,213.5C 394.59,204.681 390.423,196.014 386,187.5C 385.333,191.833 385.333,196.167 386,200.5C 386.561,203.502 388.061,205.835 390.5,207.5C 386.27,207.386 382.937,205.719 380.5,202.5C 381.5,202.5 382.5,202.5 383.5,202.5C 383.334,195.159 383.5,187.826 384,180.5C 393.504,191.841 400.67,204.507 405.5,218.5 Z"/></g>
<g><path style="opacity:1" fill="#dace5a" d="M 98.5,195.5 C 82.7129,200.571 80.3796,209.405 91.5,222C 96.4889,222.499 101.489,222.666 106.5,222.5C 107.234,223.878 107.901,225.378 108.5,227C 101.773,227.678 95.1064,228.345 88.5,229C 84.7752,222.337 82.1085,215.17 80.5,207.5C 80.9569,203.953 82.4569,200.953 85,198.5C 89.242,194.315 93.242,189.982 97,185.5C 97.4552,188.854 97.9552,192.187 98.5,195.5 Z"/></g>
<g><path style="opacity:1" fill="#d9cd5a" d="M 108.5,221.5 C 111.188,220.976 112.688,219.309 113,216.5C 113.817,211.332 113.317,206.332 111.5,201.5C 116.441,200.2 117.608,197.2 115,192.5C 110.109,189.214 107.609,190.548 107.5,196.5C 105.621,195.659 103.621,195.325 101.5,195.5C 101.149,192.762 100.482,190.096 99.5,187.5C 99.8333,187.167 100.167,186.833 100.5,186.5C 106.162,187.833 111.829,189.166 117.5,190.5C 120.638,199.384 122.805,208.384 124,217.5C 120.732,219.706 117.232,221.539 113.5,223C 110.698,227.75 109.031,227.25 108.5,221.5 Z"/></g>
<g><path style="opacity:1" fill="#ef6591" d="M 397.5,214.5 C 395.784,211.451 393.451,209.118 390.5,207.5C 388.061,205.835 386.561,203.502 386,200.5C 385.333,196.167 385.333,191.833 386,187.5C 390.423,196.014 394.59,204.681 398.5,213.5C 398.376,214.107 398.043,214.44 397.5,214.5 Z"/></g>
<g><path style="opacity:1" fill="#f7e1cd" d="M 238.5,213.5 C 236.217,216.956 233.717,220.29 231,223.5C 229.848,226.44 228.848,229.44 228,232.5C 225.361,229.025 222.527,225.692 219.5,222.5C 223.495,211.523 225.161,200.19 224.5,188.5C 228.925,197.022 233.592,205.356 238.5,213.5 Z"/></g>
<g><path style="opacity:1" fill="#fcfaf4" d="M 111.5,201.5 C 109.413,200.415 108.08,198.749 107.5,196.5C 107.609,190.548 110.109,189.214 115,192.5C 117.608,197.2 116.441,200.2 111.5,201.5 Z"/></g>
<g><path style="opacity:1" fill="#de8479" d="M 275.5,205.5 C 274.833,205.5 274.167,205.5 273.5,205.5C 272.122,204.766 270.622,204.099 269,203.5C 267.199,199.309 266.533,194.975 267,190.5C 270.094,195.409 272.927,200.409 275.5,205.5 Z"/></g>
<g><path style="opacity:1" fill="#65122b" d="M 131.5,323.5 C 132.291,357.248 136.458,390.581 144,423.5C 147.082,432.412 150.748,441.078 155,449.5C 155.399,435.27 156.899,420.936 159.5,406.5C 157.583,402.466 158.583,399.466 162.5,397.5C 165.092,407.356 169.759,416.022 176.5,423.5C 178.951,427.124 181.617,430.624 184.5,434C 191.82,440.982 199.487,447.648 207.5,454C 208.332,454.688 208.998,454.521 209.5,453.5C 209,452.5 208.5,451.5 208,450.5C 203.665,447.331 199.832,443.664 196.5,439.5C 201.499,442.676 206.166,446.342 210.5,450.5C 210.088,452.973 211.088,454.306 213.5,454.5C 211.672,455.283 210.339,456.616 209.5,458.5C 203.721,456.245 198.388,453.245 193.5,449.5C 184.445,441.446 176.111,432.779 168.5,423.5C 166.822,420.636 165.322,417.636 164,414.5C 162,422.958 161.167,431.625 161.5,440.5C 161.095,446.927 161.095,453.26 161.5,459.5C 158.167,459.5 154.833,459.5 151.5,459.5C 151.414,458.504 151.748,457.671 152.5,457C 148.847,451.245 146.014,445.078 144,438.5C 134.23,407.933 128.23,376.6 126,344.5C 125.005,343.934 124.172,343.267 123.5,342.5C 123.632,339.43 123.299,336.43 122.5,333.5C 123.458,333.953 124.292,334.619 125,335.5C 124.084,315.29 123.75,295.29 124,275.5C 123.051,277.093 121.885,278.426 120.5,279.5C 119.833,277.5 119.167,275.5 118.5,273.5C 120.087,270.732 121.92,268.065 124,265.5C 125.087,251.955 126.254,238.455 127.5,225C 127.316,223.624 126.649,222.791 125.5,222.5C 126.552,218.574 127.218,214.574 127.5,210.5C 128.725,209.848 129.392,208.681 129.5,207C 131.365,196.578 132.532,186.078 133,175.5C 134.369,171.667 135.203,172.001 135.5,176.5C 134.281,184.124 133.448,191.791 133,199.5C 132.315,224.084 131.149,248.584 129.5,273C 129.833,281.833 129.833,290.667 129.5,299.5C 130.138,307.629 130.805,315.629 131.5,323.5 Z"/></g>
<g><path style="opacity:1" fill="#827b32" d="M 101.5,195.5 C 103.621,195.325 105.621,195.659 107.5,196.5C 108.08,198.749 109.413,200.415 111.5,201.5C 113.317,206.332 113.817,211.332 113,216.5C 112.688,219.309 111.188,220.976 108.5,221.5C 106.589,212.76 104.256,204.094 101.5,195.5 Z"/></g>
<g><path style="opacity:1" fill="#7f782e" d="M 98.5,195.5 C 100.425,201.602 101.925,207.935 103,214.5C 104.396,217.064 105.563,219.731 106.5,222.5C 101.489,222.666 96.4889,222.499 91.5,222C 80.3796,209.405 82.7129,200.571 98.5,195.5 Z"/></g>
<g><path style="opacity:1" fill="#050402" d="M 380.5,202.5 C 382.937,205.719 386.27,207.386 390.5,207.5C 393.451,209.118 395.784,211.451 397.5,214.5C 397.989,215.995 398.655,217.329 399.5,218.5C 400.35,225.799 400.683,233.132 400.5,240.5C 399.477,252.903 395.477,264.236 388.5,274.5C 388.863,275.183 389.196,275.85 389.5,276.5C 387.263,278.647 385.263,280.98 383.5,283.5C 378.708,290.126 373.041,295.96 366.5,301C 361.739,303.585 356.739,303.919 351.5,302C 333.415,294.329 319.748,281.829 310.5,264.5C 300.226,262.432 290.893,264.432 282.5,270.5C 277.752,284.467 270.418,296.8 260.5,307.5C 257.743,308.753 255.409,310.587 253.5,313C 248.5,313.667 243.5,313.667 238.5,313C 233.32,311.957 228.32,310.457 223.5,308.5C 208.743,303.604 196.41,295.271 186.5,283.5C 184.105,280.122 181.771,276.789 179.5,273.5C 174.595,263.088 171.928,252.088 171.5,240.5C 171.243,229.69 175.243,221.023 183.5,214.5C 188.634,213.266 193.634,211.932 198.5,210.5C 198.833,210.5 199.167,210.5 199.5,210.5C 201.284,210.893 202.95,211.559 204.5,212.5C 209.63,215.57 214.63,218.904 219.5,222.5C 222.527,225.692 225.361,229.025 228,232.5C 228.848,229.44 229.848,226.44 231,223.5C 233.717,220.29 236.217,216.956 238.5,213.5C 241.06,211.727 243.393,209.727 245.5,207.5C 247.415,207.784 249.081,207.451 250.5,206.5C 254.395,203.963 258.728,202.963 263.5,203.5C 263.918,204.222 264.584,204.722 265.5,205C 268.146,205.497 270.813,205.664 273.5,205.5C 274.167,205.5 274.833,205.5 275.5,205.5C 275.393,207.379 275.893,207.712 277,206.5C 278.067,207.191 279.234,207.691 280.5,208C 282.364,210.688 284.364,213.188 286.5,215.5C 287.674,216.514 288.34,217.847 288.5,219.5C 288.179,224.695 288.513,229.695 289.5,234.5C 289.335,237.518 289.502,240.518 290,243.5C 291.518,242.837 292.685,241.837 293.5,240.5C 295.292,240.634 296.958,240.301 298.5,239.5C 299.568,240.434 300.901,240.768 302.5,240.5C 300.802,232.447 301.802,224.78 305.5,217.5C 306.388,214.946 306.721,212.279 306.5,209.5C 308.167,208.167 309.833,206.833 311.5,205.5C 311.351,206.552 311.517,207.552 312,208.5C 316.932,204.985 322.432,203.652 328.5,204.5C 333.858,205.728 338.858,207.728 343.5,210.5C 343.414,211.496 343.748,212.329 344.5,213C 347.489,214.304 349.989,216.137 352,218.5C 352.232,217.263 352.732,216.263 353.5,215.5C 354.5,215.167 355.167,214.5 355.5,213.5C 357.154,212.25 358.821,210.916 360.5,209.5C 362.938,207.733 365.605,206.399 368.5,205.5C 370.306,204.976 371.972,204.309 373.5,203.5C 375.903,203.552 378.236,203.219 380.5,202.5 Z"/></g>
<g><path style="opacity:1" fill="#f2efed" d="M 107.5,203.5 C 112.197,204.874 112.531,206.874 108.5,209.5C 106.261,207.867 105.928,205.867 107.5,203.5 Z"/></g>
<g><path style="opacity:1" fill="#64162d" d="M 73.5,207.5 C 74.4511,208.919 74.7845,210.585 74.5,212.5C 68.0722,218.826 61.9055,225.493 56,232.5C 51.5251,239.797 47.3584,247.131 43.5,254.5C 43.9422,250.846 44.2756,247.179 44.5,243.5C 46.2986,238.569 48.632,233.903 51.5,229.5C 56.6058,224.221 61.6058,218.721 66.5,213C 69.2661,211.629 71.5994,209.796 73.5,207.5 Z"/></g>
<g><path style="opacity:1" fill="#79a13a" d="M 260.5,209.5 C 273.776,209.607 281.276,216.274 283,229.5C 283.26,234.92 283.427,240.254 283.5,245.5C 280.22,258.634 275.72,271.301 270,283.5C 264.277,289.288 259.277,295.621 255,302.5C 252.514,305.204 249.514,306.871 246,307.5C 228.939,305.046 213.439,298.879 199.5,289C 190.352,280.54 183.852,270.373 180,258.5C 176.57,246.468 177.57,234.801 183,223.5C 188.43,217.578 194.93,216.078 202.5,219C 206.14,221.331 209.807,223.664 213.5,226C 218.323,233.901 225.156,237.735 234,237.5C 236.593,222.078 245.426,212.744 260.5,209.5 Z"/></g>
<g><path style="opacity:1" fill="#7aa23a" d="M 376.5,209.5 C 387.78,209.614 393.613,215.281 394,226.5C 396.36,240.689 394.027,254.022 387,266.5C 381.44,275.798 375.273,284.631 368.5,293C 366.5,294.333 364.5,295.667 362.5,297C 360.833,297.667 359.167,297.667 357.5,297C 333.559,288.39 317.725,271.89 310,247.5C 308.645,241.215 308.311,234.882 309,228.5C 310.855,213.645 319.022,208.479 333.5,213C 340.926,216.768 348.092,220.934 355,225.5C 357.961,221.702 361.128,218.036 364.5,214.5C 368.6,212.808 372.6,211.141 376.5,209.5 Z"/></g>
<g><path style="opacity:1" fill="#2c3329" d="M 375.5,213.5 C 380.181,212.456 383.348,214.123 385,218.5C 388.173,228.612 389.173,238.945 388,249.5C 383.099,268.375 372.766,283.375 357,294.5C 351.978,292.406 347.145,289.906 342.5,287C 335.983,279.478 329.816,271.645 324,263.5C 316.278,250.787 313.945,237.121 317,222.5C 317.5,220.667 318.667,219.5 320.5,219C 329.162,217.499 337.162,219.166 344.5,224C 347.25,226.79 350.416,228.957 354,230.5C 359.879,223.112 367.045,217.445 375.5,213.5 Z"/></g>
<g><path style="opacity:1" fill="#2c3329" d="M 257.5,213.5 C 266.31,213.809 272.144,218.142 275,226.5C 279.05,250.272 273.716,271.606 259,290.5C 255.088,295.083 250.588,298.917 245.5,302C 222.573,300.419 204.406,290.253 191,271.5C 187.802,262.908 185.635,254.075 184.5,245C 184.437,237.179 187.104,230.512 192.5,225C 193.873,224.125 195.373,223.625 197,223.5C 200.917,224.879 204.75,226.379 208.5,228C 215.739,236.075 224.739,240.075 235.5,240C 237,239.167 238.167,238 239,236.5C 241.776,225.911 247.943,218.245 257.5,213.5 Z"/></g>
<g><path style="opacity:1" fill="#64132b" d="M 75.5,214.5 C 77.873,216.579 79.2064,219.246 79.5,222.5C 73.9838,268.942 82.3172,312.608 104.5,353.5C 102.865,356.7 101.532,360.033 100.5,363.5C 99.8333,363.833 99.1667,364.167 98.5,364.5C 97.8333,361.833 97.1667,359.167 96.5,356.5C 96.3256,353.126 95.8256,349.793 95,346.5C 86.8603,331.761 80.8603,316.095 77,299.5C 71.9735,271.229 71.4735,242.896 75.5,214.5 Z"/></g>
<g><path style="opacity:1" fill="#600f28" d="M 288.5,219.5 C 292.772,225.619 296.106,232.286 298.5,239.5C 296.958,240.301 295.292,240.634 293.5,240.5C 292.332,237.822 291.166,235.155 290,232.5C 289.536,233.094 289.369,233.761 289.5,234.5C 288.513,229.695 288.179,224.695 288.5,219.5 Z"/></g>
<g><path style="opacity:1" fill="#bd3c65" d="M 79.5,222.5 C 81.2322,226.547 82.8989,230.714 84.5,235C 93.1248,234.172 101.791,233.172 110.5,232C 111.38,230.644 111.714,229.144 111.5,227.5C 116.817,227.502 121.484,225.835 125.5,222.5C 126.649,222.791 127.316,223.624 127.5,225C 126.254,238.455 125.087,251.955 124,265.5C 121.92,268.065 120.087,270.732 118.5,273.5C 104.716,292.138 103.216,311.805 114,332.5C 116.696,336.361 119.863,339.694 123.5,342.5C 124.172,343.267 125.005,343.934 126,344.5C 128.23,376.6 134.23,407.933 144,438.5C 146.014,445.078 148.847,451.245 152.5,457C 151.748,457.671 151.414,458.504 151.5,459.5C 138.167,459.5 124.833,459.5 111.5,459.5C 117.087,436.775 116.587,414.108 110,391.5C 106.539,382.25 103.373,372.917 100.5,363.5C 101.532,360.033 102.865,356.7 104.5,353.5C 82.3172,312.608 73.9838,268.942 79.5,222.5 Z"/></g>
<g><path style="opacity:1" fill="#647c59" d="M 371.5,224.5 C 380.232,224.92 383.899,229.586 382.5,238.5C 383.143,244.736 381.476,250.236 377.5,255C 372.228,259.013 368.061,258.179 365,252.5C 364.131,250.419 363.631,248.253 363.5,246C 364.848,240.134 366.348,234.301 368,228.5C 369.032,226.973 370.199,225.64 371.5,224.5 Z"/></g>
<g><path style="opacity:1" fill="#f16793" d="M 399.5,218.5 C 400.41,220.019 401.243,221.685 402,223.5C 405.579,240.057 408.079,256.724 409.5,273.5C 408.207,272.158 407.374,270.491 407,268.5C 405.14,258.958 402.974,249.625 400.5,240.5C 400.683,233.132 400.35,225.799 399.5,218.5 Z"/></g>
<g><path style="opacity:1" fill="#0b0606" d="M 405.5,218.5 C 405.5,219.167 405.833,219.5 406.5,219.5C 407.167,223.167 407.833,226.833 408.5,230.5C 409.265,233.096 409.599,235.763 409.5,238.5C 407.47,232.555 405.803,226.388 404.5,220C 404.57,219.235 404.903,218.735 405.5,218.5 Z"/></g>
<g><path style="opacity:1" fill="#647b59" d="M 257.5,227.5 C 265.481,226.916 270.314,230.583 272,238.5C 274.553,246.299 273.553,253.633 269,260.5C 257.492,267.663 250.992,264.496 249.5,251C 249.522,242.152 252.189,234.319 257.5,227.5 Z"/></g>
<g><path style="opacity:1" fill="#d67e74" d="M 293.5,240.5 C 292.685,241.837 291.518,242.837 290,243.5C 289.502,240.518 289.335,237.518 289.5,234.5C 289.369,233.761 289.536,233.094 290,232.5C 291.166,235.155 292.332,237.822 293.5,240.5 Z"/></g>
<g><path style="opacity:1" fill="#1a1f18" d="M 294.5,247.5 C 301.575,245.697 305.575,248.364 306.5,255.5C 299.112,255.798 292.279,257.798 286,261.5C 286.118,257.753 286.951,254.087 288.5,250.5C 290.444,249.199 292.444,248.199 294.5,247.5 Z"/></g>
<g><path style="opacity:1" fill="#f86b98" d="M 431.5,334.5 C 430.252,341.093 426.918,346.426 421.5,350.5C 420.478,350.145 419.811,349.478 419.5,348.5C 419.607,342.12 419.107,335.787 418,329.5C 415.691,313.081 412.858,296.748 409.5,280.5C 409.997,278.182 410.33,275.848 410.5,273.5C 412.553,268.446 414.053,263.113 415,257.5C 421.317,283.09 426.817,308.756 431.5,334.5 Z"/></g>
<g><path style="opacity:1" fill="#607656" d="M 359.5,261.5 C 365.917,260.743 368.75,263.41 368,269.5C 363.102,273.814 359.602,272.814 357.5,266.5C 357.437,264.486 358.103,262.819 359.5,261.5 Z"/></g>
<g><path style="opacity:1" fill="#f9e3cf" d="M 383.5,283.5 C 388.843,290.333 395.343,295.999 403,300.5C 405.843,304.165 407.51,308.165 408,312.5C 406.729,315.433 405.062,318.099 403,320.5C 395.703,325.815 387.703,329.815 379,332.5C 378.575,323.466 376.575,314.8 373,306.5C 366.312,300.651 361.979,302.318 360,311.5C 358.547,321.553 357.047,331.553 355.5,341.5C 318.622,354.925 280.622,360.425 241.5,358C 233.308,344.883 225.975,331.383 219.5,317.5C 221.07,314.686 222.403,311.686 223.5,308.5C 228.32,310.457 233.32,311.957 238.5,313C 243.5,313.667 248.5,313.667 253.5,313C 255.409,310.587 257.743,308.753 260.5,307.5C 270.418,296.8 277.752,284.467 282.5,270.5C 290.893,264.432 300.226,262.432 310.5,264.5C 319.748,281.829 333.415,294.329 351.5,302C 356.739,303.919 361.739,303.585 366.5,301C 373.041,295.96 378.708,290.126 383.5,283.5 Z"/></g>
<g><path style="opacity:1" fill="#637a58" d="M 247.5,268.5 C 252.651,268.814 255.151,271.481 255,276.5C 252.24,278.703 249.24,279.036 246,277.5C 245.068,274.177 245.568,271.177 247.5,268.5 Z"/></g>
<g><path style="opacity:1" fill="#e48d80" d="M 296.5,269.5 C 300.936,269.21 305.27,269.71 309.5,271C 312.087,272.525 312.92,274.692 312,277.5C 306.398,279.931 300.564,281.931 294.5,283.5C 289.156,282.655 287.323,279.655 289,274.5C 291.17,272.177 293.67,270.51 296.5,269.5 Z"/></g>
<g><path style="opacity:1" fill="#f86a98" d="M 186.5,370.5 C 187.167,374.167 187.833,377.833 188.5,381.5C 188.5,382.833 188.5,384.167 188.5,385.5C 187.686,387.273 186.352,387.773 184.5,387C 175.261,381.146 165.928,375.48 156.5,370C 151.899,368.106 147.232,367.606 142.5,368.5C 141.934,371.583 141.934,374.583 142.5,377.5C 149.833,383.833 157.167,390.167 164.5,396.5C 167.895,399.89 170.895,403.556 173.5,407.5C 174.182,412.893 175.182,418.227 176.5,423.5C 169.759,416.022 165.092,407.356 162.5,397.5C 158.583,399.466 157.583,402.466 159.5,406.5C 156.899,420.936 155.399,435.27 155,449.5C 150.748,441.078 147.082,432.412 144,423.5C 136.458,390.581 132.291,357.248 131.5,323.5C 131.362,311.141 131.862,298.808 133,286.5C 133.86,280.586 135.527,274.92 138,269.5C 142.357,294.593 149.357,318.927 159,342.5C 165.016,355.015 174.182,364.348 186.5,370.5 Z"/></g>
<g><path style="opacity:1" fill="#600209" d="M 118.5,273.5 C 119.167,275.5 119.833,277.5 120.5,279.5C 115.826,287.859 113.16,296.859 112.5,306.5C 112.77,316.694 116.103,325.694 122.5,333.5C 123.299,336.43 123.632,339.43 123.5,342.5C 119.863,339.694 116.696,336.361 114,332.5C 103.216,311.805 104.716,292.138 118.5,273.5 Z"/></g>
<g><path style="opacity:1" fill="#f6decc" d="M 122.5,333.5 C 116.103,325.694 112.77,316.694 112.5,306.5C 113.16,296.859 115.826,287.859 120.5,279.5C 121.885,278.426 123.051,277.093 124,275.5C 123.75,295.29 124.084,315.29 125,335.5C 124.292,334.619 123.458,333.953 122.5,333.5 Z"/></g>
<g><path style="opacity:1" fill="#65122b" d="M 179.5,273.5 C 181.771,276.789 184.105,280.122 186.5,283.5C 186.408,286.359 186.075,288.859 185.5,291C 187.429,311.75 188.929,332.583 190,353.5C 190.698,354.691 191.531,355.691 192.5,356.5C 192.5,357.833 192.5,359.167 192.5,360.5C 191.503,360.47 190.836,360.97 190.5,362C 191.045,365.187 191.711,368.354 192.5,371.5C 193.417,370.873 194.417,370.539 195.5,370.5C 195.5,372.833 195.5,375.167 195.5,377.5C 194.833,379.5 193.5,380.833 191.5,381.5C 190.5,381.5 189.5,381.5 188.5,381.5C 187.833,377.833 187.167,374.167 186.5,370.5C 183.402,338.228 181.069,305.895 179.5,273.5 Z"/></g>
<g><path style="opacity:1" fill="#61050c" d="M 389.5,276.5 C 390.073,279.147 390.74,281.813 391.5,284.5C 399.48,289.649 406.313,295.982 412,303.5C 415.176,312.127 413.342,319.46 406.5,325.5C 399.17,331.219 391.17,335.719 382.5,339C 396.212,337.414 408.545,340.581 419.5,348.5C 419.811,349.478 420.478,350.145 421.5,350.5C 426.918,346.426 430.252,341.093 431.5,334.5C 431.622,331.708 432.956,329.708 435.5,328.5C 436.117,328.611 436.617,328.944 437,329.5C 439.034,327.968 441.201,326.635 443.5,325.5C 447.214,325.881 449.214,327.881 449.5,331.5C 446.493,341.519 443.493,351.519 440.5,361.5C 439.944,367.389 438.611,373.055 436.5,378.5C 435.962,380.117 435.629,381.784 435.5,383.5C 434.33,391.515 432.83,399.515 431,407.5C 430.095,411.153 428.595,414.486 426.5,417.5C 423.268,417.228 421.268,415.562 420.5,412.5C 421.496,412.586 422.329,412.252 423,411.5C 426.617,401.138 428.95,390.472 430,379.5C 435.296,363.984 439.63,348.317 443,332.5C 437.137,337.867 432.47,344.201 429,351.5C 426.347,354.194 423.18,355.027 419.5,354C 406.07,345.887 391.737,343.387 376.5,346.5C 373.991,333.459 371.158,320.459 368,307.5C 366.803,310.089 365.803,312.756 365,315.5C 363.678,333.112 360.678,350.445 356,367.5C 354.334,369.403 352.5,369.737 350.5,368.5C 345.219,369.658 339.886,370.491 334.5,371C 331.246,372.027 328.246,373.527 325.5,375.5C 326.128,377.258 327.128,378.758 328.5,380C 333.317,381.964 338.317,383.298 343.5,384C 350.029,387.667 354.863,392.834 358,399.5C 360.766,402.777 363.933,405.443 367.5,407.5C 367.389,408.117 367.056,408.617 366.5,409C 362.534,409.828 358.534,410.328 354.5,410.5C 355.209,409.596 356.209,409.263 357.5,409.5C 356.998,406.331 355.331,403.998 352.5,402.5C 350.58,399.943 348.747,397.276 347,394.5C 345.549,392.536 343.716,391.203 341.5,390.5C 339.55,388.247 337.216,387.914 334.5,389.5C 325.434,388.098 320.434,382.765 319.5,373.5C 319.859,371.629 320.859,370.129 322.5,369C 329.392,366.262 336.392,364.095 343.5,362.5C 345.607,361.532 347.941,361.198 350.5,361.5C 351.944,358.664 353.277,355.664 354.5,352.5C 354.167,352.167 353.833,351.833 353.5,351.5C 350.904,352.482 348.238,353.149 345.5,353.5C 343.143,353.337 340.81,353.503 338.5,354C 337.944,354.383 337.611,354.883 337.5,355.5C 328.983,357.72 320.316,359.22 311.5,360C 308.031,360.535 305.031,361.702 302.5,363.5C 301.5,363.5 300.5,363.5 299.5,363.5C 298.735,363.077 297.902,362.743 297,362.5C 291.872,363.259 286.705,363.759 281.5,364C 283.957,367.158 286.79,369.991 290,372.5C 290.586,375.019 291.753,377.019 293.5,378.5C 292.89,379.391 292.557,380.391 292.5,381.5C 289.175,386.643 284.508,390.143 278.5,392C 274.026,396.104 271.693,400.937 271.5,406.5C 270.692,408.22 269.692,409.887 268.5,411.5C 265.925,413.845 264.925,416.845 265.5,420.5C 265.167,420.5 264.833,420.5 264.5,420.5C 262.883,421.038 261.216,421.371 259.5,421.5C 260.741,410.358 264.741,400.358 271.5,391.5C 271.167,390.833 270.833,390.167 270.5,389.5C 274.776,386.446 279.276,383.779 284,381.5C 285.623,376.304 283.79,373.304 278.5,372.5C 270.087,374.046 262.087,376.712 254.5,380.5C 253.3,379.469 251.966,378.635 250.5,378C 245.33,372.523 240.496,366.69 236,360.5C 228.662,347.797 221.328,335.13 214,322.5C 213.5,323.5 213,324.5 212.5,325.5C 213.307,341.543 217.64,356.709 225.5,371C 214.514,371.552 204.681,376.052 196,384.5C 194.139,386.888 192.806,389.554 192,392.5C 190.915,393.293 189.748,393.96 188.5,394.5C 175.546,385.865 161.879,378.532 147.5,372.5C 146.833,372.833 146.167,373.167 145.5,373.5C 156.26,383.088 166.76,392.754 177,402.5C 185,413.833 193,425.167 201,436.5C 205.304,442.567 211.137,445.9 218.5,446.5C 216.869,448.643 214.869,450.31 212.5,451.5C 211.833,451.167 211.167,450.833 210.5,450.5C 206.166,446.342 201.499,442.676 196.5,439.5C 189.833,430.144 183.5,420.477 177.5,410.5C 176.148,409.476 174.815,408.476 173.5,407.5C 170.895,403.556 167.895,399.89 164.5,396.5C 157.167,390.167 149.833,383.833 142.5,377.5C 141.934,374.583 141.934,371.583 142.5,368.5C 147.232,367.606 151.899,368.106 156.5,370C 165.928,375.48 175.261,381.146 184.5,387C 186.352,387.773 187.686,387.273 188.5,385.5C 189.878,384.455 190.878,383.122 191.5,381.5C 193.5,380.833 194.833,379.5 195.5,377.5C 198.873,374.822 202.206,372.156 205.5,369.5C 210.167,368.833 214.833,368.167 219.5,367.5C 219.67,366.178 219.337,365.011 218.5,364C 209.631,363.918 200.965,362.751 192.5,360.5C 192.5,359.167 192.5,357.833 192.5,356.5C 199.555,356.782 206.555,357.449 213.5,358.5C 213.833,357.833 214.167,357.167 214.5,356.5C 207.985,343.726 206.485,330.393 210,316.5C 213.352,313.951 216.519,314.284 219.5,317.5C 225.975,331.383 233.308,344.883 241.5,358C 280.622,360.425 318.622,354.925 355.5,341.5C 357.047,331.553 358.547,321.553 360,311.5C 361.979,302.318 366.312,300.651 373,306.5C 376.575,314.8 378.575,323.466 379,332.5C 387.703,329.815 395.703,325.815 403,320.5C 405.062,318.099 406.729,315.433 408,312.5C 407.51,308.165 405.843,304.165 403,300.5C 395.343,295.999 388.843,290.333 383.5,283.5C 385.263,280.98 387.263,278.647 389.5,276.5 Z"/></g>
<g><path style="opacity:1" fill="#e2887c" d="M 186.5,283.5 C 196.41,295.271 208.743,303.604 223.5,308.5C 222.403,311.686 221.07,314.686 219.5,317.5C 216.519,314.284 213.352,313.951 210,316.5C 206.485,330.393 207.985,343.726 214.5,356.5C 214.167,357.167 213.833,357.833 213.5,358.5C 206.555,357.449 199.555,356.782 192.5,356.5C 191.531,355.691 190.698,354.691 190,353.5C 188.929,332.583 187.429,311.75 185.5,291C 186.075,288.859 186.408,286.359 186.5,283.5 Z"/></g>
<g><path style="opacity:1" fill="#9e060d" d="M 311.5,344.5 C 310.142,345.626 308.808,345.626 307.5,344.5C 310.017,343.136 311.851,341.136 313,338.5C 315.185,329.824 316.352,321.158 316.5,312.5C 314.783,308.515 312.783,304.682 310.5,301C 304.111,298.035 299.611,299.868 297,306.5C 292.858,318.907 292.524,331.24 296,343.5C 296.608,345.066 297.442,346.4 298.5,347.5C 297.749,348.573 296.749,348.74 295.5,348C 290.38,340.184 288.046,331.517 288.5,322C 288.584,312.312 291.584,303.812 297.5,296.5C 307.038,291.173 314.205,293.507 319,303.5C 324.308,318.814 321.808,332.481 311.5,344.5 Z"/></g>
<g><path style="opacity:1" fill="#ce6779" d="M 311.5,344.5 C 311.119,345.931 310.119,346.764 308.5,347C 304.93,347.262 301.597,347.429 298.5,347.5C 297.442,346.4 296.608,345.066 296,343.5C 292.524,331.24 292.858,318.907 297,306.5C 299.611,299.868 304.111,298.035 310.5,301C 312.783,304.682 314.783,308.515 316.5,312.5C 316.352,321.158 315.185,329.824 313,338.5C 311.851,341.136 310.017,343.136 307.5,344.5C 308.808,345.626 310.142,345.626 311.5,344.5 Z"/></g>
<g><path style="opacity:1" fill="#f9e3d0" d="M 420.5,412.5 C 414.286,409.109 407.619,406.943 400.5,406C 389.365,404.986 378.365,405.486 367.5,407.5C 363.933,405.443 360.766,402.777 358,399.5C 354.863,392.834 350.029,387.667 343.5,384C 338.317,383.298 333.317,381.964 328.5,380C 327.128,378.758 326.128,377.258 325.5,375.5C 328.246,373.527 331.246,372.027 334.5,371C 339.886,370.491 345.219,369.658 350.5,368.5C 352.5,369.737 354.334,369.403 356,367.5C 360.678,350.445 363.678,333.112 365,315.5C 365.803,312.756 366.803,310.089 368,307.5C 371.158,320.459 373.991,333.459 376.5,346.5C 391.737,343.387 406.07,345.887 419.5,354C 423.18,355.027 426.347,354.194 429,351.5C 432.47,344.201 437.137,337.867 443,332.5C 439.63,348.317 435.296,363.984 430,379.5C 428.95,390.472 426.617,401.138 423,411.5C 422.329,412.252 421.496,412.586 420.5,412.5 Z"/></g>
<g><path style="opacity:1" fill="#bd3d65" d="M 400.5,240.5 C 402.974,249.625 405.14,258.958 407,268.5C 407.374,270.491 408.207,272.158 409.5,273.5C 409.833,273.5 410.167,273.5 410.5,273.5C 410.33,275.848 409.997,278.182 409.5,280.5C 412.858,296.748 415.691,313.081 418,329.5C 419.107,335.787 419.607,342.12 419.5,348.5C 408.545,340.581 396.212,337.414 382.5,339C 391.17,335.719 399.17,331.219 406.5,325.5C 413.342,319.46 415.176,312.127 412,303.5C 406.313,295.982 399.48,289.649 391.5,284.5C 390.74,281.813 390.073,279.147 389.5,276.5C 389.196,275.85 388.863,275.183 388.5,274.5C 395.477,264.236 399.477,252.903 400.5,240.5 Z"/></g>
<g><path style="opacity:1" fill="#f9e3cf" d="M 259.5,421.5 C 241.957,423.44 228.29,431.773 218.5,446.5C 211.137,445.9 205.304,442.567 201,436.5C 193,425.167 185,413.833 177,402.5C 166.76,392.754 156.26,383.088 145.5,373.5C 146.167,373.167 146.833,372.833 147.5,372.5C 161.879,378.532 175.546,385.865 188.5,394.5C 189.748,393.96 190.915,393.293 192,392.5C 192.806,389.554 194.139,386.888 196,384.5C 204.681,376.052 214.514,371.552 225.5,371C 217.64,356.709 213.307,341.543 212.5,325.5C 213,324.5 213.5,323.5 214,322.5C 221.328,335.13 228.662,347.797 236,360.5C 240.496,366.69 245.33,372.523 250.5,378C 251.966,378.635 253.3,379.469 254.5,380.5C 262.087,376.712 270.087,374.046 278.5,372.5C 283.79,373.304 285.623,376.304 284,381.5C 279.276,383.779 274.776,386.446 270.5,389.5C 270.833,390.167 271.167,390.833 271.5,391.5C 264.741,400.358 260.741,410.358 259.5,421.5 Z"/></g>
<g><path style="opacity:1" fill="#040101" d="M 345.5,353.5 C 347.167,356.167 348.833,358.833 350.5,361.5C 347.941,361.198 345.607,361.532 343.5,362.5C 341.719,359.909 339.719,357.575 337.5,355.5C 337.611,354.883 337.944,354.383 338.5,354C 340.81,353.503 343.143,353.337 345.5,353.5 Z"/></g>
<g><path style="opacity:1" fill="#d7537d" d="M 350.5,361.5 C 348.833,358.833 347.167,356.167 345.5,353.5C 348.238,353.149 350.904,352.482 353.5,351.5C 353.833,351.833 354.167,352.167 354.5,352.5C 353.277,355.664 351.944,358.664 350.5,361.5 Z"/></g>
<g><path style="opacity:1" fill="#7f4e6d" d="M 337.5,355.5 C 339.719,357.575 341.719,359.909 343.5,362.5C 336.392,364.095 329.392,366.262 322.5,369C 320.859,370.129 319.859,371.629 319.5,373.5C 318.167,373.5 316.833,373.5 315.5,373.5C 313.075,370.954 310.075,369.454 306.5,369C 304.561,367.568 303.228,365.735 302.5,363.5C 305.031,361.702 308.031,360.535 311.5,360C 320.316,359.22 328.983,357.72 337.5,355.5 Z"/></g>
<g><path style="opacity:1" fill="#bf3f67" d="M 96.5,356.5 C 97.1667,359.167 97.8333,361.833 98.5,364.5C 96.0982,367.215 93.4315,369.715 90.5,372C 71.0976,383.929 54.5976,399.096 41,417.5C 33.571,430.924 32.071,444.924 36.5,459.5C 34.8333,459.5 33.1667,459.5 31.5,459.5C 29.9009,455.288 28.5675,450.955 27.5,446.5C 27.2385,433.57 30.7385,421.57 38,410.5C 53.0443,392.116 70.5443,376.616 90.5,364C 93.1208,361.886 95.1208,359.386 96.5,356.5 Z"/></g>
<g><path style="opacity:1" fill="#f46895" d="M 192.5,360.5 C 200.965,362.751 209.631,363.918 218.5,364C 219.337,365.011 219.67,366.178 219.5,367.5C 214.833,368.167 210.167,368.833 205.5,369.5C 202.098,369.342 198.764,369.676 195.5,370.5C 194.417,370.539 193.417,370.873 192.5,371.5C 191.711,368.354 191.045,365.187 190.5,362C 190.836,360.97 191.503,360.47 192.5,360.5 Z"/></g>
<g><path style="opacity:1" fill="#878cae" d="M 299.5,363.5 C 299.673,370.175 303.006,374.341 309.5,376C 309.272,376.399 308.938,376.565 308.5,376.5C 304.758,377.837 301.091,379.171 297.5,380.5C 296.167,379.833 294.833,379.167 293.5,378.5C 291.753,377.019 290.586,375.019 290,372.5C 286.79,369.991 283.957,367.158 281.5,364C 286.705,363.759 291.872,363.259 297,362.5C 297.902,362.743 298.735,363.077 299.5,363.5 Z"/></g>
<g><path style="opacity:1" fill="#070405" d="M 299.5,363.5 C 300.5,363.5 301.5,363.5 302.5,363.5C 303.228,365.735 304.561,367.568 306.5,369C 310.075,369.454 313.075,370.954 315.5,373.5C 313.764,379.049 312.43,384.715 311.5,390.5C 309.771,398.48 312.104,404.813 318.5,409.5C 319.354,408.478 320.354,407.645 321.5,407C 322.535,403.76 324.201,400.926 326.5,398.5C 329.653,395.926 332.32,392.926 334.5,389.5C 337.216,387.914 339.55,388.247 341.5,390.5C 338.582,395.752 334.916,400.418 330.5,404.5C 326.664,406.584 322.997,408.917 319.5,411.5C 320.519,413.604 321.519,415.604 322.5,417.5C 325.892,426.523 328.392,435.856 330,445.5C 334.708,439.143 340.874,434.643 348.5,432C 345.976,423.423 347.976,416.257 354.5,410.5C 358.534,410.328 362.534,409.828 366.5,409C 367.056,408.617 367.389,408.117 367.5,407.5C 378.365,405.486 389.365,404.986 400.5,406C 407.619,406.943 414.286,409.109 420.5,412.5C 421.268,415.562 423.268,417.228 426.5,417.5C 430.11,424.663 430.11,431.997 426.5,439.5C 430.849,445.526 433.516,452.193 434.5,459.5C 432.833,459.5 431.167,459.5 429.5,459.5C 427.056,452.773 423.722,446.606 419.5,441C 422.242,434.777 423.742,428.277 424,421.5C 420.961,420.469 418.461,418.635 416.5,416C 405.3,411.395 393.633,409.561 381.5,410.5C 377.518,410.93 373.685,411.93 370,413.5C 366.013,412.273 362.68,413.273 360,416.5C 358.126,414.224 356.459,414.557 355,417.5C 353.761,422.514 352.261,427.347 350.5,432C 358.104,431.979 365.77,432.145 373.5,432.5C 376.378,433.7 378.712,435.7 380.5,438.5C 376.431,439.566 372.431,439.566 368.5,438.5C 361.833,437.622 355.167,437.122 348.5,437C 340.629,442.541 333.795,449.041 328,456.5C 327.517,457.448 327.351,458.448 327.5,459.5C 325.167,459.5 322.833,459.5 320.5,459.5C 309.492,450.552 296.826,446.052 282.5,446C 278.135,448.514 273.801,451.014 269.5,453.5C 268.718,451.671 269.384,450.171 271.5,449C 275.896,446.475 279.896,443.475 283.5,440C 280.174,435.674 276.507,431.674 272.5,428C 270.5,427.5 268.5,427 266.5,426.5C 263.56,427.294 260.56,428.294 257.5,429.5C 256.328,429.081 255.328,428.415 254.5,427.5C 247.979,428.881 241.979,431.381 236.5,435C 235.748,435.671 235.414,436.504 235.5,437.5C 226.957,442.576 221.29,449.909 218.5,459.5C 215.833,459.5 213.167,459.5 210.5,459.5C 210.5,458.833 210.167,458.5 209.5,458.5C 210.339,456.616 211.672,455.283 213.5,454.5C 214.885,453.053 214.552,452.053 212.5,451.5C 214.869,450.31 216.869,448.643 218.5,446.5C 228.29,431.773 241.957,423.44 259.5,421.5C 261.216,421.371 262.883,421.038 264.5,420.5C 277.296,420.629 284.962,426.963 287.5,439.5C 292.703,439.512 297.536,440.846 302,443.5C 300.977,435.252 298.81,427.252 295.5,419.5C 296.21,416.14 294.876,414.307 291.5,414C 283.689,414.595 276.023,413.762 268.5,411.5C 269.692,409.887 270.692,408.22 271.5,406.5C 276.374,408.124 281.374,409.124 286.5,409.5C 287.919,410.451 289.585,410.784 291.5,410.5C 291.335,406.818 291.501,403.152 292,399.5C 293.765,396.968 295.265,394.301 296.5,391.5C 297.906,387.155 296.572,383.822 292.5,381.5C 292.557,380.391 292.89,379.391 293.5,378.5C 294.833,379.167 296.167,379.833 297.5,380.5C 299.978,383.329 300.978,386.662 300.5,390.5C 298.123,396.58 297.123,402.913 297.5,409.5C 300.898,409.82 304.232,409.487 307.5,408.5C 305.161,402.36 304.494,396.36 305.5,390.5C 305.993,385.701 306.993,381.035 308.5,376.5C 308.938,376.565 309.272,376.399 309.5,376C 303.006,374.341 299.673,370.175 299.5,363.5 Z"/></g>
<g><path style="opacity:1" fill="#f96b99" d="M 100.5,363.5 C 103.373,372.917 106.539,382.25 110,391.5C 116.587,414.108 117.087,436.775 111.5,459.5C 101.5,459.5 91.5,459.5 81.5,459.5C 79.7654,440.013 83.0987,421.513 91.5,404C 91,403.5 90.5,403 90,402.5C 68.1528,412.109 52.1528,427.776 42,449.5C 40.6476,452.72 39.8143,456.053 39.5,459.5C 38.5,459.5 37.5,459.5 36.5,459.5C 32.071,444.924 33.571,430.924 41,417.5C 54.5976,399.096 71.0976,383.929 90.5,372C 93.4315,369.715 96.0982,367.215 98.5,364.5C 99.1667,364.167 99.8333,363.833 100.5,363.5 Z"/></g>
<g><path style="opacity:1" fill="#7d4a68" d="M 274.5,364.5 C 276.604,364.201 278.604,364.534 280.5,365.5C 271.672,366.947 263.172,369.281 255,372.5C 253.5,372.333 252,372.167 250.5,372C 249.36,370.027 248.027,368.193 246.5,366.5C 255.991,365.833 265.325,365.167 274.5,364.5 Z"/></g>
<g><path style="opacity:1" fill="#bf4068" d="M 440.5,361.5 C 441.3,366.694 442.133,372.028 443,377.5C 443.915,378.328 444.581,379.328 445,380.5C 457.645,390.228 470.145,400.061 482.5,410C 484.991,413.49 487.825,416.657 491,419.5C 498.994,433.42 498.161,446.753 488.5,459.5C 485.833,459.5 483.167,459.5 480.5,459.5C 484.386,455.419 487.552,450.752 490,445.5C 491.817,440.472 491.817,435.472 490,430.5C 485.939,422.78 480.773,415.947 474.5,410C 464.212,402.911 454.712,394.744 446,385.5C 446,386.833 446,388.167 446,389.5C 442.968,385.641 439.802,381.974 436.5,378.5C 438.611,373.055 439.944,367.389 440.5,361.5 Z"/></g>
<g><path style="opacity:1" fill="#070101" d="M 205.5,369.5 C 202.206,372.156 198.873,374.822 195.5,377.5C 195.5,375.167 195.5,372.833 195.5,370.5C 198.764,369.676 202.098,369.342 205.5,369.5 Z"/></g>
<g><path style="opacity:1" fill="#e68b9b" d="M 315.5,373.5 C 316.833,373.5 318.167,373.5 319.5,373.5C 320.434,382.765 325.434,388.098 334.5,389.5C 332.32,392.926 329.653,395.926 326.5,398.5C 322.834,393.498 317.834,390.831 311.5,390.5C 312.43,384.715 313.764,379.049 315.5,373.5 Z"/></g>
<g><path style="opacity:1" fill="#f8f8f9" d="M 308.5,376.5 C 306.993,381.035 305.993,385.701 305.5,390.5C 303.833,390.5 302.167,390.5 300.5,390.5C 300.978,386.662 299.978,383.329 297.5,380.5C 301.091,379.171 304.758,377.837 308.5,376.5 Z"/></g>
<g><path style="opacity:1" fill="#f96b99" d="M 436.5,378.5 C 439.802,381.974 442.968,385.641 446,389.5C 446,388.167 446,386.833 446,385.5C 454.712,394.744 464.212,402.911 474.5,410C 480.773,415.947 485.939,422.78 490,430.5C 491.817,435.472 491.817,440.472 490,445.5C 487.552,450.752 484.386,455.419 480.5,459.5C 479.833,459.5 479.167,459.5 478.5,459.5C 480.652,450.995 479.485,442.995 475,435.5C 469.201,427.86 462.367,421.527 454.5,416.5C 453.685,415.163 452.518,414.163 451,413.5C 450.202,410.457 449.035,407.624 447.5,405C 447.167,404.833 446.833,404.667 446.5,404.5C 445.548,406.045 445.215,407.712 445.5,409.5C 442.367,400.771 439.034,392.104 435.5,383.5C 435.629,381.784 435.962,380.117 436.5,378.5 Z"/></g>
<g><path style="opacity:1" fill="#130406" d="M 188.5,381.5 C 189.5,381.5 190.5,381.5 191.5,381.5C 190.878,383.122 189.878,384.455 188.5,385.5C 188.5,384.167 188.5,382.833 188.5,381.5 Z"/></g>
<g><path style="opacity:1" fill="#e68b9b" d="M 292.5,381.5 C 296.572,383.822 297.906,387.155 296.5,391.5C 283.91,392.701 280.577,398.701 286.5,409.5C 281.374,409.124 276.374,408.124 271.5,406.5C 271.693,400.937 274.026,396.104 278.5,392C 284.508,390.143 289.175,386.643 292.5,381.5 Z"/></g>
<g><path style="opacity:1" fill="#bd3c65" d="M 435.5,383.5 C 439.034,392.104 442.367,400.771 445.5,409.5C 447.364,426.475 445.364,443.141 439.5,459.5C 437.833,459.5 436.167,459.5 434.5,459.5C 433.516,452.193 430.849,445.526 426.5,439.5C 430.11,431.997 430.11,424.663 426.5,417.5C 428.595,414.486 430.095,411.153 431,407.5C 432.83,399.515 434.33,391.515 435.5,383.5 Z"/></g>
<g><path style="opacity:1" fill="#878caf" d="M 300.5,390.5 C 302.167,390.5 303.833,390.5 305.5,390.5C 304.494,396.36 305.161,402.36 307.5,408.5C 304.232,409.487 300.898,409.82 297.5,409.5C 297.123,402.913 298.123,396.58 300.5,390.5 Z"/></g>
<g><path style="opacity:1" fill="#7e4f6e" d="M 311.5,390.5 C 317.834,390.831 322.834,393.498 326.5,398.5C 324.201,400.926 322.535,403.76 321.5,407C 320.354,407.645 319.354,408.478 318.5,409.5C 312.104,404.813 309.771,398.48 311.5,390.5 Z"/></g>
<g><path style="opacity:1" fill="#7f4f6e" d="M 341.5,390.5 C 343.716,391.203 345.549,392.536 347,394.5C 348.747,397.276 350.58,399.943 352.5,402.5C 343.613,408.078 334.113,412.411 324,415.5C 322.97,415.836 322.47,416.503 322.5,417.5C 321.519,415.604 320.519,413.604 319.5,411.5C 322.997,408.917 326.664,406.584 330.5,404.5C 334.916,400.418 338.582,395.752 341.5,390.5 Z"/></g>
<g><path style="opacity:1" fill="#81506f" d="M 296.5,391.5 C 295.265,394.301 293.765,396.968 292,399.5C 291.501,403.152 291.335,406.818 291.5,410.5C 289.585,410.784 287.919,410.451 286.5,409.5C 280.577,398.701 283.91,392.701 296.5,391.5 Z"/></g>
<g><path style="opacity:1" fill="#e98d9d" d="M 352.5,402.5 C 355.331,403.998 356.998,406.331 357.5,409.5C 356.209,409.263 355.209,409.596 354.5,410.5C 347.976,416.257 345.976,423.423 348.5,432C 340.874,434.643 334.708,439.143 330,445.5C 328.392,435.856 325.892,426.523 322.5,417.5C 322.47,416.503 322.97,415.836 324,415.5C 334.113,412.411 343.613,408.078 352.5,402.5 Z"/></g>
<g><path style="opacity:1" fill="#bf3f67" d="M 81.5,459.5 C 79.8333,459.5 78.1667,459.5 76.5,459.5C 74.5874,449.554 74.7541,439.554 77,429.5C 78.9833,424.234 80.3166,418.9 81,413.5C 65.347,423.833 53.6803,437.5 46,454.5C 45.5065,456.134 45.3398,457.801 45.5,459.5C 43.5,459.5 41.5,459.5 39.5,459.5C 39.8143,456.053 40.6476,452.72 42,449.5C 52.1528,427.776 68.1528,412.109 90,402.5C 90.5,403 91,403.5 91.5,404C 83.0987,421.513 79.7654,440.013 81.5,459.5 Z"/></g>
<g><path style="opacity:1" fill="#64142c" d="M 454.5,416.5 C 454.5,417.5 454.5,418.5 454.5,419.5C 453.504,419.586 452.671,419.252 452,418.5C 452.846,432.711 450.68,446.377 445.5,459.5C 443.5,459.5 441.5,459.5 439.5,459.5C 445.364,443.141 447.364,426.475 445.5,409.5C 445.215,407.712 445.548,406.045 446.5,404.5C 446.833,404.667 447.167,404.833 447.5,405C 449.035,407.624 450.202,410.457 451,413.5C 452.518,414.163 453.685,415.163 454.5,416.5 Z"/></g>
<g><path style="opacity:1" fill="#bd3d66" d="M 173.5,407.5 C 174.815,408.476 176.148,409.476 177.5,410.5C 183.5,420.477 189.833,430.144 196.5,439.5C 199.832,443.664 203.665,447.331 208,450.5C 208.5,451.5 209,452.5 209.5,453.5C 208.998,454.521 208.332,454.688 207.5,454C 199.487,447.648 191.82,440.982 184.5,434C 181.617,430.624 178.951,427.124 176.5,423.5C 175.182,418.227 174.182,412.893 173.5,407.5 Z"/></g>
<g><path style="opacity:1" fill="#ea8e9e" d="M 381.5,410.5 C 393.633,409.561 405.3,411.395 416.5,416C 418.461,418.635 420.961,420.469 424,421.5C 423.742,428.277 422.242,434.777 419.5,441C 423.722,446.606 427.056,452.773 429.5,459.5C 405.833,459.5 382.167,459.5 358.5,459.5C 361.227,453.375 363.394,447.041 365,440.5C 366.302,439.915 367.469,439.249 368.5,438.5C 372.431,439.566 376.431,439.566 380.5,438.5C 378.712,435.7 376.378,433.7 373.5,432.5C 375.689,427.107 378.189,421.774 381,416.5C 381.495,414.527 381.662,412.527 381.5,410.5 Z"/></g>
<g><path style="opacity:1" fill="#7f4f6e" d="M 268.5,411.5 C 276.023,413.762 283.689,414.595 291.5,414C 294.876,414.307 296.21,416.14 295.5,419.5C 285.516,420.213 275.516,420.547 265.5,420.5C 264.925,416.845 265.925,413.845 268.5,411.5 Z"/></g>
<g><path style="opacity:1" fill="#7e4e6e" d="M 381.5,410.5 C 381.662,412.527 381.495,414.527 381,416.5C 378.189,421.774 375.689,427.107 373.5,432.5C 365.77,432.145 358.104,431.979 350.5,432C 352.261,427.347 353.761,422.514 355,417.5C 356.459,414.557 358.126,414.224 360,416.5C 362.68,413.273 366.013,412.273 370,413.5C 373.685,411.93 377.518,410.93 381.5,410.5 Z"/></g>
<g><path style="opacity:0.911" fill="#fefcfd" d="M 76.5,459.5 C 74.5,459.5 72.5,459.5 70.5,459.5C 69.3709,449.403 69.3709,439.403 70.5,429.5C 65.1926,434.65 60.3593,440.317 56,446.5C 53.6142,450.604 51.7809,454.938 50.5,459.5C 48.8333,459.5 47.1667,459.5 45.5,459.5C 45.3398,457.801 45.5065,456.134 46,454.5C 53.6803,437.5 65.347,423.833 81,413.5C 80.3166,418.9 78.9833,424.234 77,429.5C 74.7541,439.554 74.5874,449.554 76.5,459.5 Z"/></g>
<g><path style="opacity:1" fill="#898eaf" d="M 316.5,417.5 C 311.58,418.455 306.58,419.122 301.5,419.5C 298.296,417.55 298.129,415.55 301,413.5C 305.289,414.781 309.623,414.781 314,413.5C 315.595,414.356 316.428,415.689 316.5,417.5 Z"/></g>
<g><path style="opacity:1" fill="#898db0" d="M 168.5,423.5 C 168.255,432.249 168.922,440.915 170.5,449.5C 167.86,446.194 164.86,443.194 161.5,440.5C 161.167,431.625 162,422.958 164,414.5C 165.322,417.636 166.822,420.636 168.5,423.5 Z"/></g>
<g><path style="opacity:1" fill="#fbfbfb" d="M 316.5,417.5 C 322.061,429.197 324.728,441.53 324.5,454.5C 319.666,451.248 314.666,448.248 309.5,445.5C 306.622,436.869 303.956,428.203 301.5,419.5C 306.58,419.122 311.58,418.455 316.5,417.5 Z"/></g>
<g><path style="opacity:1" fill="#bf3f67" d="M 454.5,416.5 C 462.367,421.527 469.201,427.86 475,435.5C 479.485,442.995 480.652,450.995 478.5,459.5C 476.167,459.5 473.833,459.5 471.5,459.5C 474.272,453.166 474.105,446.832 471,440.5C 465.814,433.183 460.314,426.183 454.5,419.5C 454.5,418.5 454.5,417.5 454.5,416.5 Z"/></g>
<g><path style="opacity:1" fill="#e78c9c" d="M 295.5,419.5 C 298.81,427.252 300.977,435.252 302,443.5C 297.536,440.846 292.703,439.512 287.5,439.5C 284.962,426.963 277.296,420.629 264.5,420.5C 264.833,420.5 265.167,420.5 265.5,420.5C 275.516,420.547 285.516,420.213 295.5,419.5 Z"/></g>
<g><path style="opacity:0.906" fill="#fdfbfc" d="M 454.5,419.5 C 460.314,426.183 465.814,433.183 471,440.5C 474.105,446.832 474.272,453.166 471.5,459.5C 469.396,459.799 467.396,459.466 465.5,458.5C 466.315,456.045 467.315,453.711 468.5,451.5C 467.531,443.75 464.031,437.416 458,432.5C 456.443,440.168 454.777,447.834 453,455.5C 451.658,458.794 449.158,460.128 445.5,459.5C 450.68,446.377 452.846,432.711 452,418.5C 452.671,419.252 453.504,419.586 454.5,419.5 Z"/></g>
<g><path style="opacity:1" fill="#804f6f" d="M 168.5,423.5 C 176.111,432.779 184.445,441.446 193.5,449.5C 198.388,453.245 203.721,456.245 209.5,458.5C 210.167,458.5 210.5,458.833 210.5,459.5C 201.167,459.5 191.833,459.5 182.5,459.5C 179.057,456.271 175.39,453.271 171.5,450.5C 170.833,450.5 170.5,450.167 170.5,449.5C 168.922,440.915 168.255,432.249 168.5,423.5 Z"/></g>
<g><path style="opacity:1" fill="#ea8e9e" d="M 320.5,459.5 C 294.833,459.5 269.167,459.5 243.5,459.5C 237.296,453.65 234.63,446.317 235.5,437.5C 235.414,436.504 235.748,435.671 236.5,435C 241.979,431.381 247.979,428.881 254.5,427.5C 255.328,428.415 256.328,429.081 257.5,429.5C 260.56,428.294 263.56,427.294 266.5,426.5C 268.5,427 270.5,427.5 272.5,428C 276.507,431.674 280.174,435.674 283.5,440C 279.896,443.475 275.896,446.475 271.5,449C 269.384,450.171 268.718,451.671 269.5,453.5C 273.801,451.014 278.135,448.514 282.5,446C 296.826,446.052 309.492,450.552 320.5,459.5 Z"/></g>
<g><path style="opacity:1" fill="#80506f" d="M 368.5,438.5 C 367.469,439.249 366.302,439.915 365,440.5C 363.394,447.041 361.227,453.375 358.5,459.5C 348.167,459.5 337.833,459.5 327.5,459.5C 327.351,458.448 327.517,457.448 328,456.5C 333.795,449.041 340.629,442.541 348.5,437C 355.167,437.122 361.833,437.622 368.5,438.5 Z"/></g>
<g><path style="opacity:1" fill="#80506f" d="M 235.5,437.5 C 234.63,446.317 237.296,453.65 243.5,459.5C 235.167,459.5 226.833,459.5 218.5,459.5C 221.29,449.909 226.957,442.576 235.5,437.5 Z"/></g>
<g><path style="opacity:1" fill="#fcfbfb" d="M 161.5,440.5 C 164.86,443.194 167.86,446.194 170.5,449.5C 170.5,450.167 170.833,450.5 171.5,450.5C 171.756,453.598 172.422,456.598 173.5,459.5C 169.5,459.5 165.5,459.5 161.5,459.5C 161.095,453.26 161.095,446.927 161.5,440.5 Z"/></g>
<g><path style="opacity:1" fill="#e58c9d" d="M 171.5,450.5 C 175.39,453.271 179.057,456.271 182.5,459.5C 179.5,459.5 176.5,459.5 173.5,459.5C 172.422,456.598 171.756,453.598 171.5,450.5 Z"/></g>
<g><path style="opacity:1" fill="#d17c89" d="M 210.5,450.5 C 211.167,450.833 211.833,451.167 212.5,451.5C 214.552,452.053 214.885,453.053 213.5,454.5C 211.088,454.306 210.088,452.973 210.5,450.5 Z"/></g>
</svg>
